<svg width="32" height="33" viewBox="0 0 32 33" fill="none" xmlns="http://www.w3.org/2000/svg">
<path d="M16.001 0.895131C7.16198 0.895131 0.000976562 8.06213 0.000976562 16.8951C0.000976562 23.9681 4.58498 29.9631 10.938 32.0781C11.741 32.2291 12.031 31.7341 12.031 31.3061C12.031 30.9261 12.022 29.9211 12.016 28.5871C7.56298 29.5511 6.62498 26.4361 6.62498 26.4361C5.89598 24.5921 4.84398 24.0971 4.84398 24.0971C3.39598 23.1081 4.95898 23.1291 4.95898 23.1291C6.56298 23.2381 7.40698 24.7741 7.40698 24.7741C8.83398 27.2221 11.151 26.5141 12.068 26.1021C12.208 25.0711 12.625 24.3621 13.079 23.9671C9.52698 23.5661 5.79198 22.1911 5.79198 16.0601C5.79198 14.3091 6.41198 12.8831 7.43698 11.7631C7.25998 11.3621 6.71798 9.73213 7.57798 7.52813C7.57798 7.52813 8.91698 7.10113 11.978 9.16913C13.259 8.81413 14.619 8.63713 15.978 8.62813C17.338 8.63713 18.697 8.81513 19.978 9.16913C23.021 7.10113 24.359 7.52813 24.359 7.52813C25.218 9.73213 24.676 11.3611 24.52 11.7631C25.535 12.8831 26.155 14.3101 26.155 16.0601C26.155 22.2051 22.415 23.5601 18.859 23.9511C19.415 24.4301 19.936 25.4151 19.936 26.9101C19.936 29.0501 19.916 30.7741 19.916 31.2951C19.916 31.7111 20.196 32.2111 21.02 32.0501C27.42 29.9571 31.999 23.9571 31.999 16.8941C31.999 8.06113 24.838 0.894131 15.999 0.894131L16.001 0.895131Z" fill="white"/>
</svg>
